<svg width="989" height="674" viewBox="0 0 989 674" fill="none" xmlns="http://www.w3.org/2000/svg">
<g clip-path="url(#clip0_4303_10430)">
<path d="M-42.5254 637.8L84.6746 513L85.8746 675H-108.525V465.3H105.675L30.6746 540.3L29.7746 539.4C41.1746 527.1 55.2746 511.5 52.5746 493.5C49.5746 477 32.1746 465.9 16.2746 470.1C-17.0254 482.4 -25.7254 506.4 -60.8254 540.3L-62.3254 539.1C-8.02539 476.1 -60.8254 464.7 -104.925 467.7C-104.925 467.7 -111.525 590.1 -42.5254 637.8ZM-40.1254 639.6C-7.12539 666.6 40.5746 675.3 83.7746 672.3C78.6746 548.4 2.77462 588.9 -40.1254 639.6ZM281.512 612.6L343.912 675L100.612 674.7V560.1L192.712 651.6L191.512 652.8C132.712 596.1 103.012 626.4 103.912 671.7C158.512 666.6 274.012 692.7 260.212 612.6C247.312 612.6 195.112 612.6 181.312 612.6V610.2C200.812 611.4 259.612 612 246.112 570.3C238.312 570.3 199.612 570.3 190.912 570V568.2C292.912 569.7 207.712 498.6 172.312 465.3H242.812V465.9C153.112 472.2 266.212 545.7 284.212 570.3H262.612L306.112 612.9L281.512 612.6ZM593.54 529.2C605.24 517.8 632.54 477 641.24 465.6V469.2L640.64 675H637.04C641.24 502.2 543.44 569.7 480.74 675H480.44C484.94 501.6 386.54 570.3 324.44 675C324.44 652.5 324.74 490.5 324.74 465.3H328.64C323.24 634.5 418.94 571.8 484.64 465.6V465.9H484.94C480.74 537 498.74 625.2 593.54 529.2ZM851.908 637.8L979.108 513L980.308 675H785.908V465.3H1000.11L925.108 540.3L924.208 539.4C935.608 527.1 949.708 511.5 947.008 493.5C944.008 477 926.608 465.9 910.708 470.1C877.408 482.4 868.708 506.4 833.608 540.3L832.108 539.1C886.408 476.1 833.608 464.7 789.508 467.7C789.508 467.7 782.908 590.1 851.908 637.8ZM854.308 639.6C887.308 666.6 935.008 675.3 978.208 672.3C973.108 548.4 897.208 588.9 854.308 639.6ZM994.446 465.3H1187.95V675H995.046L994.746 560.4L1075.75 640.8L1074.55 641.7C1023.85 592.8 998.046 622.5 997.746 661.5C997.746 663.3 997.746 667.2 997.746 672.6H1029.85C1116.55 667.8 1185.55 595.8 1185.55 507.9C1185.55 507.6 1185.55 507.6 1185.55 507.3V467.7C1175.05 467.7 1148.05 468.6 1127.35 468.6C1076.05 468.9 1037.05 503.1 1101.55 569.7L1100.05 570.9L994.446 465.3ZM1393.9 522.3C1405.3 533.7 1545.1 675 1545.1 675L1328.8 674.7L1328.5 513.3L1420.6 604.8L1419.4 606C1361.5 550.2 1332.1 583.8 1331.8 628.2C1331.5 642.6 1331.2 660.3 1330.9 671.4C1338.4 671.4 1375.6 671.1 1397.5 670.8C1453.6 670.5 1496.2 633.9 1429.6 562.5L1332.4 465.3L1466.8 465V466.2C1388.2 467.1 1371.4 499.5 1393.9 522.3ZM1698.44 511.8C1689.14 521.4 1664.54 545.7 1654.64 555.6C1530.74 682.8 1509.14 435.9 1585.04 513.9L1586.24 512.7L1538.54 464.1C1538.54 465.3 1538.54 523.2 1538.54 524.4L1538.24 671.4C1538.24 671.4 1538.24 674.1 1538.24 674.4L1551.74 660.9L1552.64 660C1624.94 576 1696.94 564 1694.54 674.1H1698.14C1698.14 656.7 1698.44 529.8 1698.44 514.8V511.8ZM1710.75 465.3H1904.25V675H1711.35L1711.05 560.4L1792.05 640.8L1790.85 641.7C1740.15 592.8 1714.35 622.5 1714.05 661.5C1714.05 663.3 1714.05 667.2 1714.05 672.6H1746.15C1832.85 667.8 1901.85 595.8 1901.85 507.9C1901.85 507.6 1901.85 507.6 1901.85 507.3V467.7C1891.35 467.7 1864.35 468.6 1843.65 468.6C1792.35 468.9 1753.35 503.1 1817.85 569.7L1816.35 570.9L1710.75 465.3Z" fill="white"/>
<path d="M167.975 403.8L295.175 279L296.375 441H101.975V231.3H316.175L241.175 306.3L240.275 305.4C251.675 293.1 265.775 277.5 263.075 259.5C260.075 243 242.675 231.9 226.775 236.1C193.475 248.4 184.775 272.4 149.675 306.3L148.175 305.1C202.475 242.1 149.675 230.7 105.575 233.7C105.575 233.7 98.9746 356.1 167.975 403.8ZM170.375 405.6C203.375 432.6 251.075 441.3 294.275 438.3C289.175 314.4 213.275 354.9 170.375 405.6ZM492.012 378.6L554.412 441L311.112 440.7V326.1L403.212 417.6L402.012 418.8C343.212 362.1 313.512 392.4 314.412 437.7C369.012 432.6 484.512 458.7 470.712 378.6C457.812 378.6 405.612 378.6 391.812 378.6V376.2C411.312 377.4 470.112 378 456.612 336.3C448.812 336.3 410.112 336.3 401.412 336V334.2C503.412 335.7 418.212 264.6 382.812 231.3H453.312V231.9C363.612 238.2 476.712 311.7 494.712 336.3H473.112L516.612 378.9L492.012 378.6ZM804.04 295.2C815.74 283.8 843.04 243 851.74 231.6V235.2L851.14 441H847.54C851.74 268.2 753.94 335.7 691.24 441H690.94C695.44 267.6 597.04 336.3 534.94 441C534.94 418.5 535.24 256.5 535.24 231.3H539.14C533.74 400.5 629.44 337.8 695.14 231.6V231.9H695.44C691.24 303 709.24 391.2 804.04 295.2ZM1062.41 403.8L1189.61 279L1190.81 441H996.408V231.3H1210.61L1135.61 306.3L1134.71 305.4C1146.11 293.1 1160.21 277.5 1157.51 259.5C1154.51 243 1137.11 231.9 1121.21 236.1C1087.91 248.4 1079.21 272.4 1044.11 306.3L1042.61 305.1C1096.91 242.1 1044.11 230.7 1000.01 233.7C1000.01 233.7 993.408 356.1 1062.41 403.8ZM1064.81 405.6C1097.81 432.6 1145.51 441.3 1188.71 438.3C1183.61 314.4 1107.71 354.9 1064.81 405.6ZM1204.95 231.3H1398.45V441H1205.55L1205.25 326.4L1286.25 406.8L1285.05 407.7C1234.35 358.8 1208.55 388.5 1208.25 427.5C1208.25 429.3 1208.25 433.2 1208.25 438.6H1240.35C1327.05 433.8 1396.05 361.8 1396.05 273.9C1396.05 273.6 1396.05 273.6 1396.05 273.3V233.7C1385.55 233.7 1358.55 234.6 1337.85 234.6C1286.55 234.9 1247.55 269.1 1312.05 335.7L1310.55 336.9L1204.95 231.3ZM1604.4 288.3C1615.8 299.7 1755.6 441 1755.6 441L1539.3 440.7L1539 279.3L1631.1 370.8L1629.9 372C1572 316.2 1542.6 349.8 1542.3 394.2C1542 408.6 1541.7 426.3 1541.4 437.4C1548.9 437.4 1586.1 437.1 1608 436.8C1664.1 436.5 1706.7 399.9 1640.1 328.5L1542.9 231.3L1677.3 231V232.2C1598.7 233.1 1581.9 265.5 1604.4 288.3ZM1908.94 277.8C1899.64 287.4 1875.04 311.7 1865.14 321.6C1741.24 448.8 1719.64 201.9 1795.54 279.9L1796.74 278.7L1749.04 230.1C1749.04 231.3 1749.04 289.2 1749.04 290.4L1748.74 437.4C1748.74 437.4 1748.74 440.1 1748.74 440.4L1762.24 426.9L1763.14 426C1835.44 342 1907.44 330 1905.04 440.1H1908.64C1908.64 422.7 1908.94 295.8 1908.94 280.8V277.8ZM1921.25 231.3H2114.75V441H1921.85L1921.55 326.4L2002.55 406.8L2001.35 407.7C1950.65 358.8 1924.85 388.5 1924.55 427.5C1924.55 429.3 1924.55 433.2 1924.55 438.6H1956.65C2043.35 433.8 2112.35 361.8 2112.35 273.9C2112.35 273.6 2112.35 273.6 2112.35 273.3V233.7C2101.85 233.7 2074.85 234.6 2054.15 234.6C2002.85 234.9 1963.85 269.1 2028.35 335.7L2026.85 336.9L1921.25 231.3Z" fill="white"/>
<path d="M-41.5254 175.8L85.6746 51L86.8746 213H-107.525V3.29998H106.675L31.6746 78.3L30.7746 77.4C42.1746 65.1 56.2746 49.5 53.5746 31.5C50.5746 15 33.1746 3.89999 17.2746 8.09999C-16.0254 20.4 -24.7254 44.4 -59.8254 78.3L-61.3254 77.1C-7.02539 14.1 -59.8254 2.69999 -103.925 5.69999C-103.925 5.69999 -110.525 128.1 -41.5254 175.8ZM-39.1254 177.6C-6.12539 204.6 41.5746 213.3 84.7746 210.3C79.6746 86.4 3.77462 126.9 -39.1254 177.6ZM282.512 150.6L344.912 213L101.612 212.7V98.1L193.712 189.6L192.512 190.8C133.712 134.1 104.012 164.4 104.912 209.7C159.512 204.6 275.012 230.7 261.212 150.6C248.312 150.6 196.112 150.6 182.312 150.6V148.2C201.812 149.4 260.612 150 247.112 108.3C239.312 108.3 200.612 108.3 191.912 108V106.2C293.912 107.7 208.712 36.6 173.312 3.29998H243.812V3.89999C154.112 10.2 267.212 83.7 285.212 108.3H263.612L307.112 150.9L282.512 150.6ZM594.54 67.2C606.24 55.8 633.54 15 642.24 3.6V7.19999L641.64 213H638.04C642.24 40.2 544.44 107.7 481.74 213H481.44C485.94 39.6 387.54 108.3 325.44 213C325.44 190.5 325.74 28.5 325.74 3.29998H329.64C324.24 172.5 419.94 109.8 485.64 3.6V3.89999H485.94C481.74 75 499.74 163.2 594.54 67.2ZM852.908 175.8L980.108 51L981.308 213H786.908V3.29998H1001.11L926.108 78.3L925.208 77.4C936.608 65.1 950.708 49.5 948.008 31.5C945.008 15 927.608 3.89999 911.708 8.09999C878.408 20.4 869.708 44.4 834.608 78.3L833.108 77.1C887.408 14.1 834.608 2.69999 790.508 5.69999C790.508 5.69999 783.908 128.1 852.908 175.8ZM855.308 177.6C888.308 204.6 936.008 213.3 979.208 210.3C974.108 86.4 898.208 126.9 855.308 177.6ZM995.446 3.29998H1188.95V213H996.046L995.746 98.4L1076.75 178.8L1075.55 179.7C1024.85 130.8 999.046 160.5 998.746 199.5C998.746 201.3 998.746 205.2 998.746 210.6H1030.85C1117.55 205.8 1186.55 133.8 1186.55 45.9C1186.55 45.6 1186.55 45.6 1186.55 45.3V5.69999C1176.05 5.69999 1149.05 6.59999 1128.35 6.59999C1077.05 6.89999 1038.05 41.1 1102.55 107.7L1101.05 108.9L995.446 3.29998ZM1394.9 60.3C1406.3 71.7 1546.1 213 1546.1 213L1329.8 212.7L1329.5 51.3L1421.6 142.8L1420.4 144C1362.5 88.2 1333.1 121.8 1332.8 166.2C1332.5 180.6 1332.2 198.3 1331.9 209.4C1339.4 209.4 1376.6 209.1 1398.5 208.8C1454.6 208.5 1497.2 171.9 1430.6 100.5L1333.4 3.29998L1467.8 2.99999V4.19999C1389.2 5.09999 1372.4 37.5 1394.9 60.3ZM1699.44 49.8C1690.14 59.4 1665.54 83.7 1655.64 93.6C1531.74 220.8 1510.14 -26.1 1586.04 51.9L1587.24 50.7L1539.54 2.1C1539.54 3.29998 1539.54 61.2 1539.54 62.4L1539.24 209.4C1539.24 209.4 1539.24 212.1 1539.24 212.4L1552.74 198.9L1553.64 198C1625.94 114 1697.94 102 1695.54 212.1H1699.14C1699.14 194.7 1699.44 67.8 1699.44 52.8V49.8ZM1711.75 3.29998H1905.25V213H1712.35L1712.05 98.4L1793.05 178.8L1791.85 179.7C1741.15 130.8 1715.35 160.5 1715.05 199.5C1715.05 201.3 1715.05 205.2 1715.05 210.6H1747.15C1833.85 205.8 1902.85 133.8 1902.85 45.9C1902.85 45.6 1902.85 45.6 1902.85 45.3V5.69999C1892.35 5.69999 1865.35 6.59999 1844.65 6.59999C1793.35 6.89999 1754.35 41.1 1818.85 107.7L1817.35 108.9L1711.75 3.29998Z" fill="white"/>
</g>
<defs>
<clipPath id="clip0_4303_10430">
<rect width="989" height="674" fill="white"/>
</clipPath>
</defs>
</svg>