<svg width="30" height="30" viewBox="0 0 30 30" fill="none" xmlns="http://www.w3.org/2000/svg">
<g clip-path="url(#clip0_2863_112978)">
<path d="M26 0H4C1.79086 0 0 1.79086 0 4V26C0 28.2091 1.79086 30 4 30H26C28.2091 30 30 28.2091 30 26V4C30 1.79086 28.2091 0 26 0Z" fill="white"/>
<path d="M17.0116 22.66L8.1476 15.588C7.97693 15.4173 7.8916 15.2253 7.8916 15.012C7.8916 14.7987 7.97693 14.628 8.1476 14.5L16.7876 7.62C16.8516 7.556 16.9263 7.56667 17.0116 7.652L18.5796 9.604C18.6436 9.732 18.6543 9.81733 18.6116 9.86L12.2116 15.044L18.8356 20.42C18.8996 20.484 18.8996 20.5693 18.8356 20.676L17.2356 22.628C17.1503 22.7133 17.0756 22.724 17.0116 22.66Z" fill="black"/>
</g>
<defs>
<clipPath id="clip0_2863_112978">
<rect width="30" height="30" fill="white"/>
</clipPath>
</defs>
</svg>